<svg width="368" height="368" viewBox="0 0 368 368" fill="none" xmlns="http://www.w3.org/2000/svg">
<rect width="368" height="368" rx="184" fill="black"/>
<path d="M151.2 98.2L177.8 143.4C178.6 144.733 179 146.533 179 148.8C179 152.133 178.2 155.2 176.6 158L116.4 262.4C114.8 265.067 112.533 267.333 109.6 269.2C106.667 271.067 103.867 272 101.2 272H53.2C49.4667 272 47.6 270.4 47.6 267.2C47.6 265.733 48.1333 264.133 49.2 262.4L110.2 156.8L142 101.6C144 98.1333 146.133 96.4 148.4 96.4C149.6 96.4 150.533 97 151.2 98.2ZM259.148 166.4H326.348C330.082 166.4 331.948 168 331.948 171.2C331.948 172.667 331.415 174.267 330.348 176L280.548 262.4C279.082 265.067 276.815 267.333 273.748 269.2C270.815 271.067 268.015 272 265.348 272H130.948C127.348 272 125.548 270.4 125.548 267.2C125.548 265.733 126.015 264.133 126.948 262.4L219.748 101.6C221.748 98.1333 223.882 96.4 226.148 96.4C227.348 96.4 228.282 97 228.948 98.2L255.548 143.4C256.348 144.733 256.748 146.533 256.748 148.8C256.748 152.133 255.948 155.2 254.348 158C253.682 159.333 253.348 160.6 253.348 161.8C253.348 164.867 255.282 166.4 259.148 166.4ZM218.948 252.8L257.748 185.6C258.682 183.867 259.148 182.267 259.148 180.8C259.148 177.6 257.282 176 253.548 176C251.015 176 248.215 176.933 245.148 178.8C242.215 180.667 240.015 182.933 238.548 185.6L199.748 252.8C198.682 254.533 198.148 256.133 198.148 257.6C198.148 260.8 200.015 262.4 203.748 262.4C206.415 262.4 209.215 261.467 212.148 259.6C215.082 257.733 217.348 255.467 218.948 252.8Z" fill="white"/>
</svg>
