<svg width="286" height="286" viewBox="0 0 286 286" fill="none" xmlns="http://www.w3.org/2000/svg">
<path d="M104.2 57.2L130.8 102.4C131.6 103.733 132 105.533 132 107.8C132 111.133 131.2 114.2 129.6 117L69.4 221.4C67.8 224.067 65.5333 226.333 62.6 228.2C59.6667 230.067 56.8667 231 54.2 231H6.2C2.46667 231 0.6 229.4 0.6 226.2C0.6 224.733 1.13333 223.133 2.2 221.4L63.2 115.8L95 60.6C97 57.1333 99.1333 55.4 101.4 55.4C102.6 55.4 103.533 56 104.2 57.2ZM212.148 125.4H279.348C283.082 125.4 284.948 127 284.948 130.2C284.948 131.667 284.415 133.267 283.348 135L233.548 221.4C232.082 224.067 229.815 226.333 226.748 228.2C223.815 230.067 221.015 231 218.348 231H83.9484C80.3484 231 78.5484 229.4 78.5484 226.2C78.5484 224.733 79.0151 223.133 79.9484 221.4L172.748 60.6C174.748 57.1333 176.882 55.4 179.148 55.4C180.348 55.4 181.282 56 181.948 57.2L208.548 102.4C209.348 103.733 209.748 105.533 209.748 107.8C209.748 111.133 208.948 114.2 207.348 117C206.682 118.333 206.348 119.6 206.348 120.8C206.348 123.867 208.282 125.4 212.148 125.4ZM171.948 211.8L210.748 144.6C211.682 142.867 212.148 141.267 212.148 139.8C212.148 136.6 210.282 135 206.548 135C204.015 135 201.215 135.933 198.148 137.8C195.215 139.667 193.015 141.933 191.548 144.6L152.748 211.8C151.682 213.533 151.148 215.133 151.148 216.6C151.148 219.8 153.015 221.4 156.748 221.4C159.415 221.4 162.215 220.467 165.148 218.6C168.082 216.733 170.348 214.467 171.948 211.8Z" fill="white"/>
</svg>
